<?xml version="1.0" encoding="UTF-8"?>
<svg width="512" height="512" version="1.1" viewBox="0 0 512 512" xmlns="http://www.w3.org/2000/svg">
 <rect width="512" height="512" fill="#000"/>
 <path d="m143.71 363.17c-0.82505-1.0313-1.5001-25.892-1.5001-55.246v-53.371l-13.75-1.3631c-7.5625-0.74972-20.962-2.0494-29.777-2.8882l-16.027-1.525v-22.259-22.259l16.027-1.525c8.8152-0.83887 22.215-2.1385 29.777-2.8882l13.75-1.3631v-53.371c0-29.354 0.67505-54.215 1.5001-55.246 1.403-1.7538 4.1049-1.8839 28.527-1.3751l26.973 0.56366v54.288 54.288l40.75-0.53829c22.412-0.29606 43.3-0.97825 46.416-1.516l5.666-0.97763v-52.791-52.791l26.973-0.56366c24.422-0.50876 27.124-0.37866 28.527 1.3751 0.82505 1.0313 1.5001 25.892 1.5001 55.246v53.371l13.75 1.3631c7.5625 0.74972 20.962 2.0494 29.777 2.8882l16.027 1.525v22.259 22.259l-16.027 1.525c-8.8152 0.83887-22.215 2.1385-29.777 2.8882l-13.75 1.3631v53.371c0 29.354-0.67505 54.215-1.5001 55.246-1.403 1.7538-4.1049 1.8839-28.527 1.3751l-26.973-0.56366v-54.288-54.288l-40.75 0.53829c-22.412 0.29606-43.3 0.97825-46.416 1.516l-5.666 0.97763v52.791 52.791l-26.973 0.56366c-24.422 0.50876-27.124 0.37866-28.527-1.3751zm119.66-132.93v-24.741h-46.666-46.666v24.741 24.741h46.666 46.666z" fill="#fff" stroke-width=".66666"/>
</svg>